# xmcd
#
# Track frame offsets:
#	150
#	13435
#	31847
#	46099
#	58035
#	76403
#	91930
#	105761
#	119710
#	136059
#	150552
#	162855
#	177878
#	192607
#	208367
#
# Disc length: 2948 seconds
#
# Revision: 1
# Processed by: cddbd v1.5.2PL0 Copyright (c) Steve Scherf et al.
# Submitted via: audiograbber 1.83.01
#
DISCID=c40b820f
DTITLE=Daniel O'Donnell - Daniel O'Donnell - Favourite Memories (Reader's Diges
DTITLE=t) [Disc 3]
DYEAR=2012
DGENRE=Country
TTITLE0=Whatever Happened To Old Fashioned Love
TTITLE1=The Love In Your Eyes
TTITLE2=Leaving Is Easy (When Loving Is Hard)
TTITLE3=I Wonder Where You Are Tonight
TTITLE4=My Dreams Just Came True
TTITLE5=Don't Forget To Remember
TTITLE6=Crying My Heart Out Over You
TTITLE7=Help Me Make It Through The Night
TTITLE8=Love Me Tender
TTITLE9=Someday You'll Want Me To Want You
TTITLE10=It Comes And Goes
TTITLE11=Broken Hearts Always Mend
TTITLE12=Old Loves Never Die
TTITLE13=Take Good Care Of Her
TTITLE14=I Can't Help It (If I'm Still In Love With You)
EXTD=
EXTT0=
EXTT1=
EXTT2=
EXTT3=
EXTT4=
EXTT5=
EXTT6=
EXTT7=
EXTT8=
EXTT9=
EXTT10=
EXTT11=
EXTT12=
EXTT13=
EXTT14=
PLAYORDER=
